<?xml version="1.0" encoding="UTF-8"?>
<svg xmlns="http://www.w3.org/2000/svg" xmlns:xlink="http://www.w3.org/1999/xlink" viewBox="0 0 30 30" width="30px" height="30px">
<g id="surface114413592">
<path style=" stroke:none;fill-rule:nonzero;fill:rgb(7.058824%,87.450981%,95.294118%);fill-opacity:1;" d="M 15 3 C 14.867188 3 14.730469 3.015625 14.597656 3.042969 L 4.628906 5.035156 C 3.683594 5.214844 3 6.039062 3 7 L 3 23 C 3 23.960938 3.683594 24.785156 4.628906 24.964844 L 14.597656 26.957031 C 14.730469 26.984375 14.863281 27 15 27 C 16.105469 27 17 26.105469 17 25 L 17 5 C 17 3.894531 16.105469 3 15 3 Z M 19 6 L 19 12 C 20.035156 12 20.945312 11.476562 21.484375 10.679688 C 22.253906 11.121094 22.882812 11.75 23.320312 12.515625 C 22.496094 13.074219 22 14.003906 22 15 C 22 15.996094 22.496094 16.925781 23.320312 17.484375 C 22.882812 18.25 22.25 18.878906 21.484375 19.316406 C 20.945312 18.523438 20.035156 18 19 18 L 19 24 C 20.542969 24 21.800781 22.828125 21.964844 21.328125 C 23.4375 20.636719 24.628906 19.449219 25.324219 17.976562 C 26.84375 17.8125 27.996094 16.53125 28 15 C 28 13.46875 26.84375 12.183594 25.320312 12.019531 C 24.625 10.550781 23.4375 9.363281 21.964844 8.667969 C 21.800781 7.171875 20.542969 6 19 6 Z M 10.433594 9.996094 C 11.8125 9.996094 12.519531 10.242188 12.847656 10.367188 L 12.847656 12.386719 C 12.6875 12.273438 11.8125 11.710938 10.554688 11.710938 C 9.007812 11.710938 8.929688 12.539062 8.929688 12.6875 C 8.929688 14.308594 13.273438 13.921875 13.273438 17.117188 C 13.273438 18.847656 12.085938 20 9.4375 20 C 7.933594 20 7.03125 19.644531 6.679688 19.460938 L 6.679688 17.304688 C 7.070312 17.632812 7.945312 18.285156 9.34375 18.285156 C 9.617188 18.285156 10.980469 18.25 10.980469 17.308594 C 10.980469 15.617188 6.636719 16.027344 6.636719 12.871094 C 6.636719 11.550781 7.460938 9.996094 10.433594 9.996094 Z M 10.433594 9.996094 "/>
</g>
</svg>
